<svg xmlns="http://www.w3.org/2000/svg" width="1024pt" height="1024pt" viewBox="0 0 1024 1024"><path fill="none" d="M0 0h1024v1024H0z"/><path fill="#133759" d="M508 25.78c15.94-.22 32.12-.51 48 1.02 14.3 1.25 28.6 2.87 42.74 5.37 14.34 3.03 28.64 5.68 42.57 10.33 23.99 6.41 46.65 15.77 69.26 25.89 5.37 2.58 10.72 5.22 15.92 8.12 16.19 9.01 32.7 18.36 47.59 29.41 6.46 4.18 12.41 8.77 18.31 13.69 15.35 11.88 29.74 24.83 43.78 38.21 5.55 6.46 11.81 12.23 17.31 18.74 9.05 9.46 16.87 19.76 24.95 30.02 3.43 4.3 6.31 8.97 9.65 13.33 4.12 5.33 7.27 11.28 11.35 16.65 12.88 19.26 23.64 39.53 33.52 60.46 3.97 9.16 8.3 18.09 11.45 27.59 6.55 16.88 12.6 34.14 16.99 51.73 1.94 6.79 4.11 13.47 5.51 20.41 2.64 13.08 5.23 25.95 6.78 39.21 1.47 11.66 3.11 23.27 3.91 35 1.17 8.99.79 18.02 1.59 27.04-.01 11.99.46 24.06-.58 36-.17 6.46.03 12.87-.87 19.29-1.84 21.37-4.77 42.69-8.91 63.74-1.98 12.43-5.58 24.32-8.73 36.47a300 300 0 0 1-6.35 20.46c-2.97 8.35-5.45 16.83-8.97 25-5.02 12.94-10.27 25.77-16.69 38.11-5.83 12.9-13.25 24.68-20 37.09-4.79 7.51-9.38 15.16-14.4 22.53-10.26 15.23-21.79 29.39-33.49 43.52-4.56 4.8-9.16 9.48-13.42 14.57-6.45 6.52-12.9 13.1-19.51 19.47-6.68 5.66-12.61 12.07-19.53 17.45-9.07 7.01-17.15 14.9-26.7 21.34-10.98 7.33-21.82 15.05-33.16 21.82-8.54 4.41-16.74 9.43-25.31 13.77-17.87 9.65-36.53 17.4-55.55 24.48-8 3.66-16.5 5.39-24.81 8.15-8.49 2.64-17.04 4.36-25.65 6.4-24.13 5.81-48.75 9.11-73.53 10.46-12.67.17-25.35.06-38.02.02-19.32-.57-38.27-3.2-57.27-6.65-10.46-1.44-20.31-4.28-30.63-6.48-8.22-1.79-16.12-4.54-24.18-6.89-11.43-3-21.44-7.97-32.69-11.63-9.13-3.06-17.18-7.79-25.78-11.73-12.25-4.77-23.05-11.49-34.21-17.99-8.86-4.55-16.88-10.28-24.97-16.04-13.61-9.12-26.69-19.16-38.85-30.14-14.3-10.98-26.03-23.51-38.68-36.32-6.96-8.05-14.35-15.78-20.79-24.26-5.73-7.19-11.83-13.41-16.9-21.07-10.81-15.15-21.08-30.54-30.09-46.84-5.13-9.11-10.86-18.39-14.96-27.99-4.73-10.94-10.19-21.45-14.33-32.65-9.39-22.89-16.98-46.42-22.23-70.6-1.43-8.23-3.78-16.2-5.57-24.34-3.43-18.94-5.61-38.13-6.83-57.33-.87-7.07-.45-14.1-.71-21.18-.86-9.36-1.06-18.64-.21-28.01.48-5.38.23-10.65.41-16.04 1.43-22.55 3.29-44.91 7.54-67.2 2.94-13.18 6.14-26.34 9.32-39.46 7.99-27.46 16.55-54.06 29.03-79.88 5.22-12.17 11.7-23.52 17.87-35.19 8.44-14.94 17.28-29.55 27.74-43.19 10.08-14.55 21.82-28.19 33.4-41.57 6.66-7.85 14.45-14.97 21.64-22.41 7.26-7.43 14.92-14.43 22.82-21.18 9.92-8.81 20.21-17.3 31.14-24.84 13.18-9.73 27.06-18.76 41.49-26.52 6.45-3.65 12.81-7.43 19.56-10.53 26.75-13.81 54.95-24.77 84.21-31.94 9.91-2.85 19.73-5.2 29.88-7.07 14.97-3.31 30.52-4.82 45.79-6.07 7.03-.35 14-1.12 21.04-1.13"/><path fill="#fff" d="M528.99 65.55c5.35.27 10.68-.08 16.03.38 9.91.92 20.16 1.27 29.95 2.87 8.25 1.3 16.49 2.7 24.68 4.31 14.32 3.1 28.58 5.74 42.48 10.51 18.41 6.36 36.37 12.8 53.87 21.47 5.2 2.83 10.37 5.68 15.72 8.22 8.96 4.33 17.17 10.17 25.77 15.24 19.27 13.27 37.97 25.73 54.92 42.04 10.7 9.59 21.13 19.61 30.62 30.41 8.73 10.36 18.5 20.03 25.69 31.3 7.02 9.72 14.59 18.9 20.64 29.32 15.2 24.34 28.53 49.94 39.37 76.53 4.17 11.78 8.64 23.43 11.98 35.49 5.59 17.52 9.46 35.41 13 53.43 2.78 17.23 4.81 34.55 6.39 51.93.36 5.34.43 10.68.97 16.01.51 8.64.22 17.34.34 25.99.19 8.39-1.04 16.65-1.12 25.03-1.04 14.73-2.62 29.47-5.02 44.04-2.15 9.54-3.88 19.17-6.06 28.71-3.89 19.75-10.71 39.19-17.36 58.17-3.87 11.29-8.87 22.26-13.85 33.1-3.87 7.57-6.7 15.52-11.16 22.8-5.55 10.85-11.97 21.13-18.65 31.32-8.74 14.31-18.86 27.62-29.39 40.64-6.35 7.3-12.75 14.55-19.23 21.73-6.96 8.14-14.8 15.16-22.65 22.38-6.66 6.73-13.92 12.75-21.16 18.82-12.17 9.35-23.99 18.9-37.2 26.82-7.93 5.35-15.95 10.17-24.49 14.53-14.7 8.44-30.05 15.63-45.7 22.13-8.74 3.59-17.86 6.23-26.84 9.38-15.71 5.06-31.83 8.93-48.02 12.08-9.88 1.35-19.73 2.95-29.61 4.25-8.65.55-17.26 1.61-25.9 1.42-7.46-.21-14.52 1.49-21.98.65-8.09-.94-16.22-.42-24.32-1.38-13.58-.6-26.78-3.07-40.2-5.02-10.14-1.57-20.11-4.55-30.14-6.81-11.68-2.82-22.81-6.86-34.4-10.64-18.19-6.05-35.05-14.39-52.02-23.19-4.92-2.7-9.72-5.6-14.62-8.33-7.41-4.14-14.16-9.06-21.25-13.7-6.99-4.57-14.01-9.25-20.56-14.43-21.79-17.24-42.6-36.18-60.87-57.13-7.62-8.36-14.6-17.51-21.73-26.28-18.85-25.37-35.32-52.44-49.01-80.92-4.93-10.62-9.32-21.49-13.66-32.37-3.59-10.77-7.68-21.31-10.76-32.24-5.69-18.36-9.92-37.19-12.72-56.21-3.32-20.39-6.14-40.69-6.35-61.38-.53-7.69-1.38-15.24-.64-22.96 1.06-8.68.51-17.4 1.52-26.09.34-11.66 2.63-22.99 3.77-34.57 2.28-13.44 4.51-26.87 7.25-40.22 6.38-26.71 14.18-53.19 25.7-78.18 9.43-21.06 19.68-42.36 32.11-61.83 7.32-12.59 16.37-24.28 24.96-36.03 4.04-5.62 8.82-10.49 13.11-15.9 8.03-9.93 16.69-19.26 25.87-28.13 10.49-10.68 21.62-21.44 33.74-30.26 6.95-5.43 13.87-10.87 21.2-15.79 6.45-4.33 12.23-9.18 19.03-12.95 7.3-3.99 13.97-8.86 21.48-12.47 8.23-4.02 16.23-8.49 24.41-12.61 8.96-4.04 18.21-7.48 27.46-10.78 15.43-5.73 30.79-10.88 46.93-14.2 10.91-2.88 22.01-4.53 33.06-6.71 15.3-2.55 31.07-3.6 46.56-3.81 6.24-.91 11.84-.63 18.06.07"/><path fill="#122d48" d="M466.05 112.74c11.02-1.79 21.91 5.76 24.88 16.32 1.11 4.65 1.09 9.8-.5 14.34-1.67 4.81-5.6 8.52-9.78 11.25-4.31 2.72-10.16 3.56-15.06 4.85-2.21 5.38-4.63 10.5-6.14 16.15-2.01 7.49-4.16 14.54-5 22.26-.83 7.61-2.32 14.46-1.82 22.11.46 6.3.85 12.64 1.74 18.9 5.56-1.05 11-2.38 16.61-3.16 10.78-1.45 22.14-3.27 33.03-2.96 9.36.49 18.72 1.28 28.04 2.34 7.99.86 15.92 3.03 23.67 5.11 7.68 2.37 15.28 4.62 22.57 8.03-6.64-.5-13.12-.44-19.66-1.97-5.83-1.38-11.59-2.42-17.53-3.11.47 1.01.93 2.02 1.4 3.03-1.23 0-2.45-.01-3.67-.04-11.84-2.44-23.79-3.05-35.83-3.54-15.98-.27-32.22 1.25-47.44 6.38 1.18 5.34 2.88 10.48 3.48 15.95-3.22-.45-6.4.61-7.75-3.19-3.09-10.53-4.35-21.85-4.85-32.8-.37-6.03-1.18-11.91-.73-17.98.5-6.48 1.04-12.98 2.04-19.39 1.68-10.3 5.98-19.44 9.67-29.22 1.57-4.23 3.55-8.09 5.97-11.9 5.73-.42 11.58.34 15.86-4.23 5.58-5.33 5.95-13.82 1.41-19.93-4.26-6.48-13.73-8.35-20-3.7-5.9 4.14-7.48 12.28-5.02 18.8.7 2.62 2.76 6.06 1.58 8.71-2.03 5.3-5.53 9.98-7.91 15.15-6.85 14.36-11.48 30.02-15.69 45.33-1.7 8.58-3.54 17.1-5.46 25.64-2.5 11.56-2.14 23.86-2.67 35.63.06 3.41-3.18 4.12-5.51 5.78-1.74-5.2-1.97-10.51-2.37-15.92-14.18 4.45-27.58 13.54-39.17 22.68-6.9 5.27-12.15 11.47-18.3 17.69-4.5 4.85-8.67 10.03-12.88 15.13-8.71 10.87-15.27 24.21-21.24 36.77-2.66 6.07-5.98 12.18-7.74 18.54-1.8 4.71-3.34 9.45-4.62 14.32-3.89 15.34-8.98 30.24-11.86 45.86-2.92 9.32-4.74 18.9-7.84 28.16-2.47 7.33-4.75 14.68-7.79 21.8 1.7-.75 3.4-1.53 5.11-2.28 1.59 2.7 2.97 3.81 1.34 7.1-3.52 5.57-10.37 8.3-14.22 13.85-5.13 7.17-10.48 14.09-16.29 20.72-6.08 6.9-10.85 14.55-15.69 22.32-9.61 15.37-17.47 31.88-24.28 48.65-.03-1.1-.06-2.21-.11-3.31-1.79.03-3.57.07-5.36.09.23 4.23.45 8.46.1 12.69-4.12-6.41-2.36-13.49 1.76-19.38.42.91.84 1.82 1.25 2.74.06-4.45.1-8.87.45-13.31 4.79-12.78 11.84-23.84 19.01-35.35 5.49-8.74 11.82-16.76 17.97-25.03 5.35-7.17 11.89-12.53 16.9-20.08 3.14-4.74 3.8-11.17 5.44-16.64 3-10.31 6.33-20.51 9-30.92 3.15-14.01 6.5-27.99 10.09-41.89 1.96-9.16 4.4-18.19 6.84-27.23 1.42-5.29 4.49-9.46 6.47-14.54 3.14-8.02 7.11-15.65 10.4-23.61 4.5-9.23 10.97-17.72 16.75-26.19 4.16-6.17 9.6-10.94 14.21-16.78 3.24-4.15 7.19-7.46 11.15-10.88 9.88-8.44 20.32-17.26 32.09-22.92 7.22-3.83 14.52-7.47 21.83-11.12 2.89-22.61 8.78-44.48 15.62-66.17 3.29-11.08 8.95-21.67 14.49-31.77.66-1.39 1.35-2.58.88-4.17-.95-4.13-2.39-7.96-2.32-12.3-.9-10.88 8.19-21.28 19-22.26"/><path fill="#94c6dd" d="M480.66 126.34c4.54 6.11 4.17 14.6-1.41 19.93-4.28 4.57-10.13 3.81-15.86 4.23-2.42 3.81-4.4 7.67-5.97 11.9-3.69 9.78-7.99 18.92-9.67 29.22-1 6.41-1.54 12.91-2.04 19.39-.45 6.07.36 11.95.73 17.98.5 10.95 1.76 22.27 4.85 32.8 1.35 3.8 4.53 2.74 7.75 3.19-.6-5.47-2.3-10.61-3.48-15.95 15.22-5.13 31.46-6.65 47.44-6.38 12.04.49 23.99 1.1 35.83 3.54 8.22 2.16 16.22 3.93 24.1 6.88 6.48 2.43 13.06 4.75 19.33 7.71 13.74 6.78 27 14.61 39.54 23.42 5.55 3.81 9.84 8.71 14.72 13.27 8.35 7.64 15.68 16.63 21.96 26.03 6.33 11.16 12.73 21.79 17.19 33.85 5.51 13.07 9.18 26.67 12.52 40.43.63 3.03.63 5.96.66 9.04-1.71 7.7-3.46 15.34-4.21 23.21-.51-.69-1.02-1.39-1.53-2.08-.45-11.64-3.37-23.51-9.63-33.43-3.97-6.15-9.65-11.57-16.33-14.66-11.05-5.12-24.92-3.63-34.71 3.57-9.91 7.41-17.53 17.77-21.47 29.51-4.24 13.02-4.61 27.45-2.79 40.93 1.67 12.43 7.06 24.1 15.94 33.02 4.09 4.07 9.47 7.03 14.75 9.27 9.82 4.21 21.71 1.92 30.45-3.83 7.07-4.48 11.73-10.96 16-18.01 3.9-6.42 4.8-13.67 7.9-20.62.36 5.04.84 10.09 1.24 15.13.81 7.8 1.98 15.27 1.6 23.18-2.52 8.99-4.31 18.16-6.95 27.12-2.05 6.75-3.24 13.7-5.35 20.43-2.04 3.73-3.92 7.49-5.4 11.48-.11-1.85-.28-3.7-.4-5.55-.62.28-1.25.56-1.87.84.04-7 .85-14.59-2.36-20.94-1.11 7.85.33 15.74-.75 23.64.08 4.16-5.18 6.62-7.98 8.96-11.92 9.39-25.23 15.65-38.85 22.1-3.87 1.83-7.64 3.51-11.31 5.74-4.28 2.58-8.14 5.77-12.24 8.75-3.91 2.87-7.8 5.37-11.4 8.64-3.59 3.22-6.49 6.79-9.77 10.29-3.73 4.02-7.77 7.44-11.02 11.91-2.87 3.91-5.43 7.71-9.47 10.55-3.82 2.65-7.97 5.15-12.39 6.62-3.36 1.19-6.66-.86-9-3.14-4.22-4.2-6.24-10.98-8.73-16.32-3.35-7.29-7.3-14.45-12.02-20.95-8.97-10.96-19.81-19.71-31.7-27.31-10.55-6.18-21.34-11.37-32.18-16.83-6.08-3.13-12.36-5.77-18.7-8.3-6.77-2.63-12.74-6.58-19.3-9.64-13.41-6.66-25.83-14.52-38.32-22.73-6.62-4.6-13.32-9.26-19.32-14.67-7.44-6.96-14.65-13.98-20.79-22.16-4.65-6.28-9.33-12.25-12.85-19.16-3.44-6.49-5.67-13.47-8.97-20.03-2.05-3.91-2.73-8.09-3.18-12.44-.56 1.28-1.15 2.55-1.69 3.84 2.88-15.62 7.97-30.52 11.86-45.86.35.69.69 1.38 1.03 2.07 1.68-5.6 4.22-10.34 3.59-16.39 1.76-6.36 5.08-12.47 7.74-18.54 5.97-12.56 12.53-25.9 21.24-36.77 4.21-5.1 8.38-10.28 12.88-15.13 6.15-6.22 11.4-12.42 18.3-17.69 11.59-9.14 24.99-18.23 39.17-22.68.4 5.41.63 10.72 2.37 15.92 2.33-1.66 5.57-2.37 5.51-5.78.53-11.77.17-24.07 2.67-35.63 1.92-8.54 3.76-17.06 5.46-25.64 4.21-15.31 8.84-30.97 15.69-45.33 2.38-5.17 5.88-9.85 7.91-15.15 1.18-2.65-.88-6.09-1.58-8.71-2.46-6.52-.88-14.66 5.02-18.8 6.27-4.65 15.74-2.78 20 3.7"/><path fill="#14314d" d="M663.06 150.98c4.88-1.03 9.57.03 13.8 2.56.38 1.63.83 3.26 1.27 4.88-6.07-.6-12.16-.6-18.24-1.23-1.73-.32-2.84 1.72-3.92 2.75-2.25 2.87-5.21 5.57-6.87 8.83-.44 4.5.22 9.4 2.49 13.38-2.63 3.55-6.19 6.09-9.49 8.97-6.5 5.55-12.14 11.8-17.93 18.04-12.55 13.21-22.88 28.43-30.61 44.93 4.93 3.53 10.17 6.5 15.33 9.67 2.55-10.03 5.01-19.89 9.63-29.22 5.57-12.54 12.22-24.34 21.39-34.62 4.72-5.18 9.63-10.16 15.1-14.54 5.57 2.38 10.54 3.27 16.61 2.93 3.62-.24 7.21-.84 10.83-1.05-1.78.74-2.85 2.21-4.77 2.64-4.62 1.37-9.94 1.39-14.74 1.6 2.77.19 5.53.39 8.3.6-1.41.62-2.82 1.24-4.22 1.86 1.69.47 3.38.93 5.08 1.33-4.88 1.46-9.36.45-14.27.02-2.18-.36-3.52 1.21-5.09 2.43-4.34 3.91-8.62 8.23-11.83 13.13-6.32 9.84-12.43 19.47-16.53 30.5-3.17 8.62-6.25 17.44-7.9 26.49 8.67 6.34 17.58 12.84 25.54 20.12 4.81 4.52 9.28 9.42 13.63 14.39 16.15 19.44 26.53 41.72 34.41 65.57 1.52 4.61 2.65 9.29 4.35 13.84 1.25 9.26-3.02 19.06-5.14 28.22q-.255-1.575-.42-3.18c-.03-3.08-.03-6.01-.66-9.04-3.34-13.76-7.01-27.36-12.52-40.43-4.46-12.06-10.86-22.69-17.19-33.85-6.28-9.4-13.61-18.39-21.96-26.03-4.88-4.56-9.17-9.46-14.72-13.27-12.54-8.81-25.8-16.64-39.54-23.42-6.27-2.96-12.85-5.28-19.33-7.71-7.88-2.95-15.88-4.72-24.1-6.88 1.22.03 2.44.04 3.67.04-.47-1.01-.93-2.02-1.4-3.03 5.94.69 11.7 1.73 17.53 3.11 6.54 1.53 13.02 1.47 19.66 1.97 2.59.68 5.18 1.34 7.77 2.01 3.69-5.83 6.56-12.06 10.5-17.73 12.47-18.36 27.31-35.4 44.41-49.6.85-.78 1.7-1.57 2.34-2.54.86-4.64-.09-10.23 2.11-15.04 3.56-7.04 9.66-12.93 17.64-14.4"/><path fill="#0b2440" d="M676.86 153.54c10.61 5.78 14.68 19.99 9.33 30.67-3.08 5.06-8.36 9.42-14.09 11.08-1.7-.4-3.39-.86-5.08-1.33 1.4-.62 2.81-1.24 4.22-1.86-2.77-.21-5.53-.41-8.3-.6 4.8-.21 10.12-.23 14.74-1.6 1.92-.43 2.99-1.9 4.77-2.64-3.62.21-7.21.81-10.83 1.05 3.67-3.23 8.04-5.97 8.57-11.3 1.31-8.39-4.46-17.34-13.23-18.05-6.79-.64-12.2 4.6-14.3 10.62-1.08 3.96-.64 8.48-1.07 12.57-2.27-3.98-2.93-8.88-2.49-13.38 1.66-3.26 4.62-5.96 6.87-8.83 1.08-1.03 2.19-3.07 3.92-2.75 6.08.63 12.17.63 18.24 1.23-.44-1.62-.89-3.25-1.27-4.88"/><path fill="#96d4eb" d="M666.96 158.96c8.77.71 14.54 9.66 13.23 18.05-.53 5.33-4.9 8.07-8.57 11.3-6.07.34-11.04-.55-16.61-2.93-5.47 4.38-10.38 9.36-15.1 14.54-9.17 10.28-15.82 22.08-21.39 34.62-4.62 9.33-7.08 19.19-9.63 29.22-5.16-3.17-10.4-6.14-15.33-9.67 7.73-16.5 18.06-31.72 30.61-44.93 5.79-6.24 11.43-12.49 17.93-18.04 3.3-2.88 6.86-5.42 9.49-8.97.43-4.09-.01-8.61 1.07-12.57 2.1-6.02 7.51-11.26 14.3-10.62"/><path fill="#77a1bc" d="M788.39 294.31c2.73-1.02 6.4.09 7.37 3.02.66 2.36.28 5.35-1.06 7.41-1.96 2.44-6.45 2.29-8.72.35-3.39-2.99-1.83-9.4 2.41-10.78"/><path fill="#6299bb" d="M831.4 301.42c5.24-1.46 11.32.1 14.43 4.76 3.98 6.19 2.02 15.49-3.73 19.93-4.21 2.67-10.82 3.01-14.67-.53-3.91-3.17-6.15-7.48-5.73-12.6.03-5.75 4.49-9.98 9.7-11.56"/><path fill="#375e80" d="M782.97 323.01c10.44 2.49 20.09 6.45 27.42 14.59 5.22 6.09 10.15 12.8 13.36 20.19.45 3.15.53 6.31-.22 9.42-.47 2.59-1.63 5.05-.19 7.54 1.67 3.13 3.11 5.92 3.19 9.56.51-.26 1.02-.53 1.54-.79-.12 3.48-.45 7.01-.24 10.49.12 4.18 3.7 7.32 4.65 11.5.77 3.82.53 7.92.49 11.8-.2 5.28-.37 10.82-1.73 15.95-.52 2.29-1.99 3.74-3.42 5.47 1.27 4.42-.35 8.43-1.15 12.91-.84 4.35-3.13 7.81-5.5 11.44 1.87-9.41 3.26-18.96 4.42-28.47.45-3.74.52-7.49.41-11.25 2.11-15.51-1.03-31.8-4.34-46.95-3.17-12.53-8.59-25.86-18.55-34.52-6.42-5.68-14.25-10.37-23.11-9.94-6.05.17-10.83 3.12-15.71 6.37-5.44 3.63-9.93 8.72-14.54 13.43-9.34 9.38-15.94 21.91-21 34.03-6.5 15.59-9.58 31.52-11.93 48.16-1.53 10.84-1.15 22.19-.84 33.12-.33-.83-.72-1.63-1.19-2.41-1.14.24-2.28.46-3.42.7-.33-1.47-.68-2.93-1.02-4.4-.19 1.57-.38 3.14-.58 4.72l-.42.72c-.18-8.21-.56-16.27.44-24.46.99-7.72 1.29-15.61 2.98-23.13 2.69-11.76 5.27-23.2 9.5-34.55 3.62-9.08 8.81-17.71 14.01-25.96 3.86-6.19 8.98-11.75 14.2-16.81 4.89-4.77 10.86-7.34 16.14-11.62-7.89-2.45-15.07-.07-22.24 3.23q-2.67-2.16-5.4-4.26c2.3-1.58 4.57-3.18 6.77-4.89l-1.89-.18c12.14-5.52 26.54-3.88 39.11-.75"/><path fill="#2f5376" d="m743.86 323.76 1.89.18c-2.2 1.71-4.47 3.31-6.77 4.89q2.73 2.1 5.4 4.26c-13.39 7.55-24.01 20.58-31.51 33.78-6.15 11.07-10.68 22.9-13.8 35.17-2.4 9.75-5.39 19.71-6.45 29.71-1.7 16.14.17 31.31 2.37 47.25 1.86 9.54 3.21 18.65 7.49 27.5 4.61 10.72 12.73 19.76 22.78 25.67-1.95 2.16-3.73 3.54-6.32 4.88-8.66-3.54-15.15-10.05-20.21-17.76-2.75-4.59-4.57-9.75-6.75-14.63-1.25-4.86-2.6-9.67-4.39-14.36q-.795.84-1.53 1.71c.38-7.91-.79-15.38-1.6-23.18-.4-5.04-.88-10.09-1.24-15.13 1.22-8.76.08-16.98-.11-25.75.51.69 1.02 1.39 1.53 2.08.75-7.87 2.5-15.51 4.21-23.21q.165 1.605.42 3.18c2.12-9.16 6.39-18.96 5.14-28.22l.74 1.58c3.22-7.19 5.68-14.54 9.98-21.22 9.57-15.72 21.31-30.96 38.73-38.38"/><path fill="#5d8fb5" d="M766.62 329.86c-5.28 4.28-11.25 6.85-16.14 11.62-5.22 5.06-10.34 10.62-14.2 16.81-5.2 8.25-10.39 16.88-14.01 25.96-4.23 11.35-6.81 22.79-9.5 34.55-1.69 7.52-1.99 15.41-2.98 23.13-1 8.19-.62 16.25-.44 24.46-.52.92-1.06 1.84-1.64 2.74-1.47-.98-2.95-2-4.29-3.16.08-1.07-.4-2.99-.91-3.9-2.36-1.85-4.76-2.95-6.23-5.71-.27 1.2-.56 2.4-.85 3.59-3.31-9.31-2.68-18.51-2.81-28.2 1.06-10 4.05-19.96 6.45-29.71 3.12-12.27 7.65-24.1 13.8-35.17 7.5-13.2 18.12-26.23 31.51-33.78 7.17-3.3 14.35-5.68 22.24-3.23"/><path fill="#6799b8" d="M780 331.95c8.86-.43 16.69 4.26 23.11 9.94 9.96 8.66 15.38 21.99 18.55 34.52 3.31 15.15 6.45 31.44 4.34 46.95-1.29-6.54-.77-13.07-1.43-19.65-.72-.14-1.45-.29-2.17-.44.31-.74.63-1.48.95-2.22-.85-.26-1.7-.51-2.55-.76-1.71-8.92-3.39-18.05-6.49-26.61-4.24-10.85-10.96-20.96-21.59-26.39-6.23-3.21-12.86-2.69-19.46-1.1-6.55 1.61-12.2 5.42-16.68 10.38-3.96 4.42-7.45 9.31-10.89 14.14-7.24 9.71-11.23 22.55-15.07 33.95-3.57 10.23-5.15 20.72-6.46 31.45-1.86 14.8-.39 30.43 1.43 45.19 1.63 13.06 7.62 25.03 16.23 34.88 4.63 5.02 11.19 8.83 18.13 9.09 9.23.61 18.73-3.84 25.71-9.61 5.34-4.84 9.99-10.58 14.4-16.26.71 1.95 1.37 3.92 2.03 5.89-6 9.65-11.42 18.65-21.33 24.84-5.19 2.96-10.93 6.02-16.95 6.62-4.64.45-9.4.05-14.03-.46-8.43-3.97-15.61-10.71-20.35-18.7-5.44-10.62-9.18-22.18-11.03-33.97-.96-5.49-1.47-11.06-2.42-16.56-.31-10.93-.69-22.28.84-33.12 2.35-16.64 5.43-32.57 11.93-48.16 5.06-12.12 11.66-24.65 21-34.03 4.61-4.71 9.1-9.8 14.54-13.43 4.88-3.25 9.66-6.2 15.71-6.37"/><path fill="#6b9eb6" d="M637.24 338.32c8.36-1.34 17.37.76 24.81 4.66 1.25.84 2.9 1.3 2.75 3.11-.18 1.65-.48 3.28-.83 4.9-5.7-.07-11.33-1.17-17.02-1.17-10.21.69-17.67 5.94-25.85 11.34-3.39 2.68-11.28.79-11.29-4.11.5-5.09 5.89-8.95 10.03-11.22 5.46-2.87 11.3-6.36 17.4-7.51"/><path fill="#375f80" d="M792.72 347.29c10.63 5.43 17.35 15.54 21.59 26.39 3.1 8.56 4.78 17.69 6.49 26.61 3.36 34.05-3.97 69.29-20.74 99.11-4.41 5.68-9.06 11.42-14.4 16.26-6.98 5.77-16.48 10.22-25.71 9.61-6.94-.26-13.5-4.07-18.13-9.09-8.61-9.85-14.6-21.82-16.23-34.88-1.82-14.76-3.29-30.39-1.43-45.19 1.31-10.73 2.89-21.22 6.46-31.45 3.84-11.4 7.83-24.24 15.07-33.95 3.44-4.83 6.93-9.72 10.89-14.14 4.48-4.96 10.13-8.77 16.68-10.38 6.6-1.59 13.23-2.11 19.46 1.1"/><path fill="#c0e8ed" d="M778.79 354.14c5.53 2.58 9.51 8.65 12.11 13.97 8.38 17.64 10.14 37.65 8.99 56.93-.18 8.05-1.46 15.91-3.06 23.79-5.42 22.19-14.4 45.27-31.81 60.85-3.22 2.41-6.94 5.28-10.94 6.11-3.52-.99-6.5-4.37-8.72-7.15-6.91-9.58-10.88-20.67-12.62-32.3 1.34-2.01 2.86-3.58 2.79-6.16.21-13.53.8-27.09.85-40.63 0-5-.77-9.87-1.59-14.78 1.66-8.76 4.89-17.34 8.51-25.47 5.86-12.68 13.05-24.12 24.43-32.57 3.23-2.14 7.15-4.58 11.06-2.59"/><path fill="#618fb0" d="M795.1 356.92c6.67 6.1 10.95 15.33 14.41 23.55 3.85 9.15 4.93 18.65 5.28 28.48.29 11.02.27 21.96-1.05 32.92-.89 8.4-2.93 16.48-5.22 24.58-3.3 12.06-9.18 23.44-16.64 33.44-6.32 7.99-13.01 15.16-23.2 17.92 1.2-1.62 2.4-3.22 3.71-4.75 5.47-5.72 11-11.59 15.15-18.52 3.36-5.88 5.56-12.56 8.16-18.82 1.79-4.24 3.16-8.58 4.35-13.03 1.02-3.25 2.13-6.43 2.89-9.75 4.18-19.93 4.3-40.04 2.51-60.24-.64-5.46-1.5-10.94-2.94-16.25-1.83-6.81-5.28-12.79-7.41-19.53"/><path fill="#5c91b4" d="M852.4 357.46c5.25-.93 8.36 3.41 9.03 8.09.43 2.98-.97 6.65-3.29 8.57-4.48 2.7-11.15.6-12.64-4.65-1.75-5.24 1.47-10.94 6.9-12.01"/><path fill="#294c6b" d="M823.75 357.79c5.88 11.24 7.64 23.16 9.7 35.51 1.92 11.64 1.63 23.98 1.18 35.75-.22 7.01-1.49 13.84-2.83 20.71-2.09 10.57-3.91 20.91-8.07 30.91-4.06 9.81-7.81 20.51-13.78 29.27-3.62 5.47-6.93 10.74-11.57 15.43-7.48 7.52-15.25 14.08-25.42 17.62-4.75 1.82-9.72 2.23-14.58 3.49-1.97.42-1.56 1.91-1.86 3.48-.43 5.55.51 11.35 1.75 16.76-.6 1.3-1.19 2.61-1.77 3.92-1.5.5-3.03.93-4.54 1.4 1.53.94 3.36 1.99 4.64 3.22-.52.95-1.06 1.87-1.7 2.75.39.29.77.57 1.17.85-6.32.58-12.59.11-17.72 4.49-6.6 5.86-8.45 15.43-8.45 23.87-.29-1.62-.6-3.23-.9-4.85-.92 1.56-1.81 3.21-2.9 4.66-1.28.52-2.88.29-4.24.36-.46-10.21.76-20.66 8.21-28.31 5.67-5.7 12.46-7.13 19.89-9.25-.4-1.26-.8-2.53-1.21-3.79-6.83-.46-13.61-1.34-20.43-1.9-4.14 6.21-5.36 13.86-7.17 21.05-1.8 7.4-2.44 14.9-3 22.48-1.47 9.38-4.07 18.56-5.62 27.94-2.07 12.1-3.57 24.31-5.52 36.44-.66 4.21-1.4 8.75-1.06 13 .28 4.02 2.7 7.76 5.44 10.57 2.97 3.23 8.74 3.27 12.27 1.03 2.81-2.17 4.08-6.54 5.47-9.7.51-.17 1.01-.34 1.51-.52.66 1.93 1.42 3.83 2.08 5.76.5-1.46.79-2.97 1.28-4.43.83.26 1.67.47 2.51.64-.44-.88-.9-1.75-1.3-2.65.67-.94 1.09-2.03 1.81-2.93-.08-3.89-1.35-7.64-1.36-11.57-.02-4.15.15-8.3.23-12.44.31-5.47.49-10.92 1.22-16.35 3.3 1.21 5 2.07 7 5.05.05-3.25.17-6.49.29-9.74.76 5.41.35 11.06.48 16.53 1.67-.12 3.33-.29 4.99-.48-1.47.76-3.74 1.33-4.71 2.74-1.43 2.67-1.88 6-2.29 8.96-.57 5.99-1.22 11.94-2.56 17.81-1.18 5.18-2.5 11.06-5.47 15.52-3.64 5.57-10.17 9.05-16.86 8.59-7.59-.41-15.12-3.72-18.6-10.83-3.65-7.02-2.18-14.43-1.51-21.93.36-3.18.95-6.31 1.46-9.46l-1.11-.05c1.22-1.67 2.47-3 2.62-5.18.82-5.93 1.72-11.85 2.46-17.79 1.94-11.83 3.86-23.7 6.51-35.4.79-3.58 1.41-7.19 1.98-10.81-1.26-.71-2.63-1.17-3.91-1.83.66-.09 1.32-.17 1.98-.26.76-2.3 1.66-4.55 2.52-6.81 2.97-8.04 3.09-17.17 6.52-25.21 1.43-3.04 4.57-5.16 6.06-8.07 1.47-4.27 1.47-9.19 1.91-13.67-2.63-1.05-5.29-2.04-7.93-3.09 2.59-1.34 4.37-2.72 6.32-4.88-.01 1.6 0 3.2.01 4.81 3.1 1 6.07 1.69 9.34 1.58-.65 3.86-1.25 7.71-1.47 11.62-.06 1.82.02 3.65.1 5.47 4.89 1.14 9.76 1.96 14.77 2.37.62-4 1.16-7.91.98-11.97q.84 1.245 1.62 2.52c3.88-4.33 7.28-6.83 12.77-8.86-4.47-1.37-9.46-1.41-13.6-3.42 4.63.51 9.39.91 14.03.46 6.02-.6 11.76-3.66 16.95-6.62 2.71.22 5.08.76 7.59-.62 5.73-3.01 10.88-6.8 14.12-12.54 3.76-5.71 3.74-11.62 4.43-18.15.59-1.27 1.18-2.53 1.77-3.79 1.7 1.51 2.61 3.03 5.15 2.28 3.23-3.77 4.76-9.23 6.75-13.75 1.44-3.18 1.18-6.24.71-9.59-1.22-.24-2.44-.51-3.68-.72 1.18-3.4 2.27-6.82 3.57-10.17 2.37-3.63 4.66-7.09 5.5-11.44.8-4.48 2.42-8.49 1.15-12.91 1.43-1.73 2.9-3.18 3.42-5.47 1.36-5.13 1.53-10.67 1.73-15.95.04-3.88.28-7.98-.49-11.8-.95-4.18-4.53-7.32-4.65-11.5-.21-3.48.12-7.01.24-10.49-.52.26-1.03.53-1.54.79-.08-3.64-1.52-6.43-3.19-9.56-1.44-2.49-.28-4.95.19-7.54.75-3.11.67-6.27.22-9.42"/><path fill="#679ab3" d="M504.96 364.07c12.47 2.81 21.63 9.37 32.53 15.45 3.44 2.13 8.34 5.43 9.16 9.67.56 1.89-1.21 3.01-2.6 3.85-3.22 1.6-6.93.23-9.96-1.16-6.5-3.22-12.67-7.15-19.04-10.64-5.5-2.96-12.21-4.38-18.21-6.21-10.85-3.29-21.64-3.98-32.89-4.51.43-1.61-.13-4.16 1.77-4.76 12.82-5.5 25.91-4.06 39.24-1.69"/><path fill="#fdfdfd" d="M778.61 364.4c2.5 1.76 3.1 4.81.98 7.16-4.11 4.48-10.36 6.95-14.56 11.46-4.43 4.69-6.84 12.21-11.9 16.16-1.68 1.44-4.26.88-5.48-.87-.9-2.42.03-5.5.9-7.81 4.1-9.96 10.94-18.92 19.58-25.36 3.23-2.26 7.06-3.31 10.48-.74"/><path fill="#d4dfe6" d="M318.28 372.57c.63 6.05-1.91 10.79-3.59 16.39-.34-.69-.68-1.38-1.03-2.07 1.28-4.87 2.82-9.61 4.62-14.32"/><path fill="#133450" d="M657.15 379.86c6.68 3.09 12.36 8.51 16.33 14.66 6.26 9.92 9.18 21.79 9.63 33.43.19 8.77 1.33 16.99.11 25.75-3.1 6.95-4 14.2-7.9 20.62-4.27 7.05-8.93 13.53-16 18.01-8.74 5.75-20.63 8.04-30.45 3.83-5.28-2.24-10.66-5.2-14.75-9.27-8.88-8.92-14.27-20.59-15.94-33.02-1.82-13.48-1.45-27.91 2.79-40.93 3.94-11.74 11.56-22.1 21.47-29.51 9.79-7.2 23.66-8.69 34.71-3.57"/><path fill="#fff" d="M657.75 390.25c8.56 6.17 13.81 15.36 16.54 25.42-3.97-3.09-8.14-7.01-13.29-7.75-6.14-.92-12.74.74-17.85 4.24-5.22 3.65-8.17 10.03-10.1 15.91-2.65 7.89-3.21 15.98-1.71 24.17 1.23 7.91 5.24 15.89 11.94 20.52 3.87 2.81 9.06 3.78 13.76 3.47 3.86-.3 6.63-2.28 9.88-4.12-3.91 5.77-8.23 10.9-14.27 14.54-5.57 3.38-12.79 4.01-19.07 2.71-7.07-1.92-13.32-7.54-17.7-13.25-5.95-7.35-9.23-16.97-10.37-26.26-.69-9.8-.81-20.05 1.91-29.54 2.27-9.56 7.87-18.25 14.7-25.18 4.23-4.16 8.86-7.83 14.73-9.29 7.28-1.77 14.87.09 20.9 4.41"/><path fill="#6291b1" d="M820.8 400.29c.85.25 1.7.5 2.55.76-.32.74-.64 1.48-.95 2.22.72.15 1.45.3 2.17.44.66 6.58.14 13.11 1.43 19.65.11 3.76.04 7.51-.41 11.25-1.16 9.51-2.55 19.06-4.42 28.47-1.3 3.35-2.39 6.77-3.57 10.17-2.63 7.42-5.37 14.75-8.93 21.78-.59 1.26-1.18 2.52-1.77 3.79-1.62 2.15-3.31 4.23-4.81 6.47-.66-1.97-1.32-3.94-2.03-5.89 16.77-29.82 24.1-65.06 20.74-99.11"/><path fill="#0e2f4a" d="M487.86 413.61c6.96.95 13.86 2.86 20.51 5.09.42.63.84 1.26 1.24 1.9-4.56 1.67-8.3 4.63-12.68 6.67.07.68.13 1.37.19 2.06-.76-.04-1.52-.1-2.28-.16-8.27-1.74-16.37-3.26-24.88-2.48-8 .76-16.35 1.77-23.94 4.4-3.13.94-7.25 2.56-10.47 1.48-1.58-2.24-2.81-5.37-.76-7.74 2.42-2.94 6.77-4.52 10.25-5.84 13.72-4.75 28.34-6.69 42.82-5.38"/><path fill="#b3dee7" d="M734.79 414.77c.82 4.91 1.59 9.78 1.59 14.78-.05 13.54-.64 27.1-.85 40.63.07 2.58-1.45 4.15-2.79 6.16-4.13-20.15-2.93-41.68 2.05-61.57"/><path fill="#fdfdfd" d="M658.58 417.67c2.81-.9 5.85-.34 7.93 1.82 4.28 4.25 5.3 12.11.03 16.05-3.7 3.22-8.98 2.76-12.34-.7-5.19-5.05-2.05-14.8 4.38-17.17"/><path fill="#123556" d="M508.37 418.7c6.21 2.22 12.17 5.82 18.11 8.81 5.19 2.62 10.08 5.72 14.5 9.51 3.12 2.73 6.66 5.51 8.98 8.98 1.54 2.43 1.95 6.5-.86 8.21-2.51 1.81-6.15-.58-8.37-1.91-5.57-3.88-10.86-8.02-16.97-11.09-9.11-5.34-18.93-8.75-28.92-12.04.76.06 1.52.12 2.28.16-.06-.69-.12-1.38-.19-2.06 4.38-2.04 8.12-5 12.68-6.67-.4-.64-.82-1.27-1.24-1.9"/><path fill="#b6ddee" d="M303.49 428.91c.45 4.35 1.13 8.53 3.18 12.44 3.3 6.56 5.53 13.54 8.97 20.03 3.52 6.91 8.2 12.88 12.85 19.16 6.14 8.18 13.35 15.2 20.79 22.16 6 5.41 12.7 10.07 19.32 14.67 12.49 8.21 24.91 16.07 38.32 22.73 6.56 3.06 12.53 7.01 19.3 9.64 6.34 2.53 12.62 5.17 18.7 8.3 10.84 5.46 21.63 10.65 32.18 16.83 11.89 7.6 22.73 16.35 31.7 27.31 4.72 6.5 8.67 13.66 12.02 20.95 2.49 5.34 4.51 12.12 8.73 16.32 2.34 2.28 5.64 4.33 9 3.14 4.42-1.47 8.57-3.97 12.39-6.62 4.04-2.84 6.6-6.64 9.47-10.55 3.25-4.47 7.29-7.89 11.02-11.91 3.28-3.5 6.18-7.07 9.77-10.29 3.6-3.27 7.49-5.77 11.4-8.64 4.1-2.98 7.96-6.17 12.24-8.75 3.67-2.23 7.44-3.91 11.31-5.74 13.62-6.45 26.93-12.71 38.85-22.1 2.8-2.34 8.06-4.8 7.98-8.96 1.08-7.9-.36-15.79.75-23.64 3.21 6.35 2.4 13.94 2.36 20.94.62-.28 1.25-.56 1.87-.84.12 1.85.29 3.7.4 5.55 1.48-3.99 3.36-7.75 5.4-11.48-.88 5.31-1.75 10.56-3.5 15.67-4.44 13.55-7.51 27.48-12 41-2.55 8.07-4.15 16.34-6.55 24.46-3.37 11.5-7.09 22.91-10.61 34.36-3.57 12.81-8.31 25.31-13.49 37.55-5.94 12.76-12.14 26.25-20.27 37.73-3.9 5.41-7.43 11.18-11.73 16.27-10.2 11.5-21.36 22.06-33.45 31.56-5.66 4.3-11.65 7.93-18.02 11.08-.31-1.7-.76-3.36-1.06-5.06 3.65-4.75 7.15-9.62 10.39-14.66 2.44-3.79 3.39-7.83 5.14-11.93 2.78-6.63 6.28-12.53 8.42-19.5 3.74-13.2 8.48-25.65 10.4-39.35 1.26-9.79 2.21-19.57 3.81-29.31.34-2.36.35-4.43-1.73-6.01-3.38-1.27-6.25.1-9.03 1.99-7.21 4.98-13.21 11.52-20.24 16.84-5.94 4.72-12.67 8.44-19.73 11.17-7.96 3.14-16.87-.39-22.14-6.75-7.11-7.58-10.39-16.65-15.66-25.38-3.52-6.45-5.8-12.82-10.77-18.55-1.39-1.56-3.36-2.24-5.42-2.15-3.06 2.72-4.22 7.78-5.28 11.6-1.48 6.33-3.18 12.53-5.25 18.7-5.27 17.64-14.57 34.67-22.81 51.28-2.6 5.53-6.58 10.06-9.49 15.38-2.63 5.27-6.54 9.42-10.05 14.07-3.86 5.77-8.87 10.38-13.43 15.54-5.42 6.48-12.77 11.69-19.84 16.24-2.83 1.85-5.93 3.05-9.15 4.03-3.48 1.04-6.6 2.76-9.83 4.38-2.99.21-6.24.28-8.98 1.58-3.86 1.8-7.08 4.99-10.12 7.9-8.65 8.34-17.53 16.47-25.92 25.08-4.24 4.31-9.44 7.66-15.02 9.95-4.85 1.76-10.48 1.76-15.59 1.75-9.8-.26-18.96-5.23-24.7-13.13-4.68-6.83-6.42-16.21-8.13-24.2.31-4.81.34-9.58.02-14.38 1.12-5.45 2.34-10.88 3.23-16.38 2.07-12.44 5.27-25.44 5.2-37.98-.01-7.83.24-15.24-.89-22.95-.8-6.05-2.69-11.61-4.39-17.42-1.61-6.56-5.08-12.39-6.98-18.81-.79-2.32.26-3.41 1.64-5.09 8.56-9.46 15.54-20.48 23.41-30.55 4.34-5.69 8.37-11.57 12.96-17.07 5.24-6.26 9.77-12.63 16.16-17.83 4.57-4.26 10.33-7.13 14.71-11.53.4-3.08-2.17-5.36-5.02-5.79-2.59.51-5.02 2.36-7.2 3.78a117.9 117.9 0 0 0-26.19 23.85c-3.92 4.78-7.89 9.48-11.47 14.54-5.54 7.8-11.39 15.4-16.68 23.31-3.65 5.45-6.56 11.07-10.69 16.15-5.94 7.09-14.48 11.51-23.76 11.89-7.02.3-13.68-4.8-16.44-11.05-2.73-5.87-2.17-13.1-2.2-19.43-.03-8.85 1.1-17.67 3.5-26.18 2.91-9.79 6.93-19.16 10.29-28.75 6.81-16.77 14.67-33.28 24.28-48.65 4.84-7.77 9.61-15.42 15.69-22.32 5.81-6.63 11.16-13.55 16.29-20.72 3.85-5.55 10.7-8.28 14.22-13.85 1.63-3.29.25-4.4-1.34-7.1-1.71.75-3.41 1.53-5.11 2.28 3.04-7.12 5.32-14.47 7.79-21.8 3.1-9.26 4.92-18.84 7.84-28.16.54-1.29 1.13-2.56 1.69-3.84"/><path fill="#5588ae" d="M692.62 431.75c.13 9.69-.5 18.89 2.81 28.2.29-1.19.58-2.39.85-3.59 1.47 2.76 3.87 3.86 6.23 5.71.51.91.99 2.83.91 3.9 1.34 1.16 2.82 2.18 4.29 3.16.58-.9 1.12-1.82 1.64-2.74l.42-.72c.43 16.64 4 33.49 10.88 48.68 2.94 6.78 7.87 11.93 11.47 18.3-2.28-.13-4.59-.24-6.86-.48-10.05-5.91-18.17-14.95-22.78-25.67-4.28-8.85-5.63-17.96-7.49-27.5-2.2-15.94-4.07-31.11-2.37-47.25"/><path fill="#446b89" d="M801.93 434.72c.73 8.09-2.35 15.04-2.86 22.95-.14 1.8.44 3.34.98 5.02-1.19 4.45-2.56 8.79-4.35 13.03-2.6 6.26-4.8 12.94-8.16 18.82-4.15 6.93-9.68 12.8-15.15 18.52-.53-.9-1.06-1.79-1.6-2.68-1.74.87-3.48 1.71-5.22 2.58-.18-1.1-.36-2.19-.55-3.28 17.41-15.58 26.39-38.66 31.81-60.85.12 1.08.24 2.16.37 3.24 2.3-5.63 2.65-11.66 4.73-17.35"/><path fill="#325676" d="M710.35 460.95c.34 1.47.69 2.93 1.02 4.4 1.14-.24 2.28-.46 3.42-.7.47.78.86 1.58 1.19 2.41.95 5.5 1.46 11.07 2.42 16.56 1.85 11.79 5.59 23.35 11.03 33.97 4.74 7.99 11.92 14.73 20.35 18.7 4.14 2.01 9.13 2.05 13.6 3.42-5.49 2.03-8.89 4.53-12.77 8.86q-.78-1.275-1.62-2.52c-2.15-3.81-9.08-3.75-12.9-4.26-1.31 2.69-2.42 5.44-2.95 8.39.22-3.91.82-7.76 1.47-11.62-3.27.11-6.24-.58-9.34-1.58-.01-1.61-.02-3.21-.01-4.81 2.27.24 4.58.35 6.86.48-3.6-6.37-8.53-11.52-11.47-18.3-6.88-15.19-10.45-32.04-10.88-48.68.2-1.58.39-3.15.58-4.72"/><path fill="#3b6486" d="M817.6 473.25c1.24.21 2.46.48 3.68.72.47 3.35.73 6.41-.71 9.59-1.99 4.52-3.52 9.98-6.75 13.75-2.54.75-3.45-.77-5.15-2.28 3.56-7.03 6.3-14.36 8.93-21.78"/><path fill="#6c99b5" d="M852.2 484.56c5.51-.51 9.11 5.61 6.84 10.42-2.04 5.23-10.93 4.54-12.38-.7-1.34-4.11 1.1-9.04 5.54-9.72"/><path fill="#13314b" d="M687.59 490.3c1.79 4.69 3.14 9.5 4.39 14.36-3.98 18.18-7.78 36.33-13.21 54.15-1 3.51-2.35 7.43-2.15 11.11.81 1.34 1.9 2.4 3.09 3.38 9.87 7.51 20.87 10.77 32.67 13.79-.86 2.26-1.76 4.51-2.52 6.81-.66.09-1.32.17-1.98.26-8.92-1.02-16.93-4.39-24.99-8.14-3.44-1.65-6.43-3.87-9.67-5.84-2.17 5.61-3.36 11.3-4.96 17.08-2.72 9.79-5.38 19.59-8.31 29.33-1.41 4.86-2.94 9.69-4.38 14.55-1.87 6.84-4.24 13.46-5.65 20.42.88.21 1.76.43 2.64.65 10.61 2.44 21.6 3.5 32.49 3.27 4.43-.07 8.73-.63 13.17-.31l1.11.05c-.51 3.15-1.1 6.28-1.46 9.46-9.61-.51-18.9.58-28.55-.28-7.71-.58-15.2-2.35-22.85-3.32-6.16 16.59-12.39 33.76-21.21 49.13-2.66 5.26-5.66 10.18-9 15.04-8.6 13.4-18.86 25.68-31.06 35.96-4.52 4.16-9.74 7.58-14.05 11.94-7.8 9.05-11.93 19.62-19.13 28.85-4.77 6.85-10.54 12.73-16.17 18.86-6.92 7.75-14.12 15.2-21.76 22.25-10.27 9.24-21.85 18.88-34.63 24.35-10.43 4.6-22.77 4.67-32.76-1.13-7.47-3.88-12.72-10.67-15.67-18.45-4.29-12.17-5.67-24.81-5.53-37.66-7.49-2.16-15.08-3.61-22.45-6.22-4.75-1.68-9.57-3.12-14.37-4.66-5.91-1.9-11.52-4.65-17.43-6.53-1.59-.4-4.05-1.18-5.48-.05-13.93 10.78-25.1 24.3-38.63 35.39-5.02 3.98-10.41 7.27-16.74 8.64-8.78-1.54-16.99 1.22-24.75-2.42 4.41-.45 8.65-.59 12.71-2.57-.88-1.24-1.72-2.49-2.6-3.73 5.11.01 10.74.01 15.59-1.75 5.58-2.29 10.78-5.64 15.02-9.95 8.39-8.61 17.27-16.74 25.92-25.08 3.04-2.91 6.26-6.1 10.12-7.9 2.74-1.3 5.99-1.37 8.98-1.58 15.49 7.21 30.99 13.46 47.75 17.07 23.57 4.96 48.63 4.27 72.2-.37 11.44-1.72 21.9-5.82 32.78-9.54 7.08-2.47 13.47-6.14 20.02-9.73 6.37-3.15 12.36-6.78 18.02-11.08 12.09-9.5 23.25-20.06 33.45-31.56 4.3-5.09 7.83-10.86 11.73-16.27 8.13-11.48 14.33-24.97 20.27-37.73 5.18-12.24 9.92-24.74 13.49-37.55 3.52-11.45 7.24-22.86 10.61-34.36 2.4-8.12 4-16.39 6.55-24.46 4.49-13.52 7.56-27.45 12-41 1.75-5.11 2.62-10.36 3.5-15.67 2.11-6.73 3.3-13.68 5.35-20.43 2.64-8.96 4.43-18.13 6.95-27.12q.735-.87 1.53-1.71"/><path fill="#386181" d="M806.9 498.82c-.69 6.53-.67 12.44-4.43 18.15-3.24 5.74-8.39 9.53-14.12 12.54-2.51 1.38-4.88.84-7.59.62 9.91-6.19 15.33-15.19 21.33-24.84 1.5-2.24 3.19-4.32 4.81-6.47"/><path fill="#fff" d="M691.98 504.66c2.18 4.88 4 10.04 6.75 14.63 5.06 7.71 11.55 14.22 20.21 17.76 2.64 1.05 5.3 2.04 7.93 3.09-.44 4.48-.44 9.4-1.91 13.67-1.49 2.91-4.63 5.03-6.06 8.07-3.43 8.04-3.55 17.17-6.52 25.21-11.8-3.02-22.8-6.28-32.67-13.79-1.19-.98-2.28-2.04-3.09-3.38-.2-3.68 1.15-7.6 2.15-11.11 5.43-17.82 9.23-35.97 13.21-54.15"/><path fill="#0e3351" d="M590.01 511.71c5.26-.17 8.48.53 12.94 3.3-1.17 1.72-1.46 4.42-3.78 5.05-4.51 1.08-9.55.34-14.17.51-13.67.2-27.32.96-40.99.87-5.58-.13-11.22.62-16.76.16-2.88-.18-4-2.63-5.83-4.53 1.86-1.42 3.51-3.34 5.94-3.58 4.15-.63 8.45-.5 12.64-.7 16.65-.71 33.34-.86 50.01-1.08"/><path fill="#6296b7" d="M827.35 524.32c3.26-.61 6.69-.03 9.43 1.88 7.6 5.06 6.46 18.86-1.77 22.78-3.24 1.47-7.21 1.53-10.6.54-5.49-1.92-8.9-7.72-8.2-13.47.25-6.15 5.42-10.56 11.14-11.73"/><path fill="#628fb1" d="M736.09 541.79c3.82.51 10.75.45 12.9 4.26.18 4.06-.36 7.97-.98 11.97-5.01-.41-9.88-1.23-14.77-2.37-.08-1.82-.16-3.65-.1-5.47.53-2.95 1.64-5.7 2.95-8.39"/><path fill="#5484a9" d="M728.32 564.14c6.82.56 13.6 1.44 20.43 1.9.41 1.26.81 2.53 1.21 3.79-7.43 2.12-14.22 3.55-19.89 9.25-7.45 7.65-8.67 18.1-8.21 28.31.35 4.83 1.11 9.69 2.46 14.34-1.32 1.47-2.65 2.92-3.97 4.38.12-1.18.24-2.36.37-3.54-1.06.36-2.13.7-3.19 1.06-.26-5.04 1.76-9.29 2.72-14.09-.68-.64-1.38-1.26-2.1-1.87.56-7.58 1.2-15.08 3-22.48 1.81-7.19 3.03-14.84 7.17-21.05"/><path fill="#13324e" d="M758.27 566.72c1.47 5.68 6.18 6.35 10.09 9.92 4.89 4.33 8.49 10.25 10.55 16.42 3.29 10.4 5.07 21.05 3.78 31.97-.55 8.21-4.24 15.96-9.36 22.3-7.94 9.21-18.64 15.4-30.46 18.19.41-2.96.86-6.29 2.29-8.96.97-1.41 3.24-1.98 4.71-2.74 8.51-3.43 15.54-11.03 20.1-18.84 4.85-7.89 4.23-18.38 3.17-27.23-1.61-9.13-5.4-20-13.08-25.79-1.31-1.06-2.63-2.1-3.99-3.1-.4-.28-.78-.56-1.17-.85.64-.88 1.18-1.8 1.7-2.75-1.28-1.23-3.11-2.28-4.64-3.22 1.51-.47 3.04-.9 4.54-1.4.58-1.31 1.17-2.62 1.77-3.92"/><path fill="#0d2942" d="M220.23 572.59c-.35 4.44-.39 8.86-.45 13.31-.41-.92-.83-1.83-1.25-2.74-4.12 5.89-5.88 12.97-1.76 19.38.35-4.23.13-8.46-.1-12.69 1.79-.02 3.57-.06 5.36-.09.05 1.1.08 2.21.11 3.31-3.36 9.59-7.38 18.96-10.29 28.75-2.4 8.51-3.53 17.33-3.5 26.18.03 6.33-.53 13.56 2.2 19.43 2.76 6.25 9.42 11.35 16.44 11.05 9.28-.38 17.82-4.8 23.76-11.89 1.48 1.22 2.91 2.49 4.41 3.69-1.83.24-3.66.44-5.48.72.45 1.37.91 2.73 1.5 4.05 1.16-.31 2.33-.61 3.5-.92-.85 1.03-1.66 2.1-2.5 3.14 2.99 8.78 6.93 17.16 9.57 26.08 2.49-3.62 4.3-7.22 4.35-11.72 1.7 5.81 3.59 11.37 4.39 17.42 1.13 7.71.88 15.12.89 22.95.07 12.54-3.13 25.54-5.2 37.98-.89 5.5-2.11 10.93-3.23 16.38a168 168 0 0 0-4.23-7.81c-1.18 1.77-2.39 3.29-2.81 5.42-2.11 10.1-.9 20.22 2.28 29.95 4.09-3.66 3.84-8.16 4.74-13.18 1.71 7.99 3.45 17.37 8.13 24.2 5.74 7.9 14.9 12.87 24.7 13.13.88 1.24 1.72 2.49 2.6 3.73-4.06 1.98-8.3 2.12-12.71 2.57 7.76 3.64 15.97.88 24.75 2.42-7.56 2.14-16.04 2.14-23.67.36-8.03-2.36-15.6-7.51-20.98-13.9-7.2-8.22-10.96-19.57-12.45-30.23-1.8-12.28 1.44-22.72 3.38-34.68 3.67-17 6.01-33.94 4.94-51.37-.47-5.66-1.81-11.26-3.03-16.79-1.68-7.32-4.98-13.42-8.04-20.17-4.44 2.78-8.43 5.59-13.58 6.99-8.03 2.14-16.36 2.28-23.53-2.43-8.16-4.58-12.33-12.89-13.8-21.86-2.32-16-.3-31.6 3.94-47.08 2.41-10.33 7.02-19.56 10.54-29.5 1.67-4.69 3.84-9.12 6.11-13.54"/><path fill="#add9e8" d="M756.07 578.86c1.36 1 2.68 2.04 3.99 3.1 7.68 5.79 11.47 16.66 13.08 25.79 1.06 8.85 1.68 19.34-3.17 27.23-4.56 7.81-11.59 15.41-20.1 18.84-1.66.19-3.32.36-4.99.48-.13-5.47.28-11.12-.48-16.53-2.79-3.42-5.79-6.29-7.95-10.22-3.42-6.17-5.27-13.43-6.55-20.33 0-8.44 1.85-18.01 8.45-23.87 5.13-4.38 11.4-3.91 17.72-4.49"/><path fill="#aed9e9" d="M673.22 580.18c3.24 1.97 6.23 4.19 9.67 5.84 8.06 3.75 16.07 7.12 24.99 8.14 1.28.66 2.65 1.12 3.91 1.83-.57 3.62-1.19 7.23-1.98 10.81-2.65 11.7-4.57 23.57-6.51 35.4 0-1.6-.06-3.2-.1-4.8l-2.82 1.56c-.87-1.53-1.75-3.09-2.41-4.74-1.81-7.01.84-14-2.03-20.79-1.64 7.56-.74 15.96-1.13 23.64-.26 4.44-2.05 8.41-3.53 12.55 1.08-.06 2.15-.11 3.23-.17-.73 3.19-.29 6.14.42 9.3-10.86.07-21.74.22-32.6.08-.2-5.29-.58-10.75 0-16.01.27-2.08.85-4.08 2.66-5.34 1.74-.94 3.94-1.18 5.78-1.87 1.93-1.97.77-4.68-.96-6.34-2.69-2.83-6.29-2.5-9.86-2.68 2.93-9.74 5.59-19.54 8.31-29.33 1.6-5.78 2.79-11.47 4.96-17.08"/><path fill="#15324d" d="M322.98 584.96c2.85.43 5.42 2.71 5.02 5.79-4.38 4.4-10.14 7.27-14.71 11.53-6.39 5.2-10.92 11.57-16.16 17.83-4.59 5.5-8.62 11.38-12.96 17.07-7.87 10.07-14.85 21.09-23.41 30.55-1.38 1.68-2.43 2.77-1.64 5.09 1.9 6.42 5.37 12.25 6.98 18.81-.05 4.5-1.86 8.1-4.35 11.72-2.64-8.92-6.58-17.3-9.57-26.08.84-1.04 1.65-2.11 2.5-3.14-1.17.31-2.34.61-3.5.92-.59-1.32-1.05-2.68-1.5-4.05 1.82-.28 3.65-.48 5.48-.72-1.5-1.2-2.93-2.47-4.41-3.69 4.13-5.08 7.04-10.7 10.69-16.15 5.29-7.91 11.14-15.51 16.68-23.31 3.58-5.06 7.55-9.76 11.47-14.54 7.46-9.2 16.33-17.29 26.19-23.85 2.18-1.42 4.61-3.27 7.2-3.78"/><path fill="#153650" d="M729 602.37c.3 1.62.61 3.23.9 4.85 1.28 6.9 3.13 14.16 6.55 20.33 2.16 3.93 5.16 6.8 7.95 10.22-.12 3.25-.24 6.49-.29 9.74-2-2.98-3.7-3.84-7-5.05-6.23-5.04-10.19-13.3-12.79-20.73-1.35-4.65-2.11-9.51-2.46-14.34 1.36-.07 2.96.16 4.24-.36 1.09-1.45 1.98-3.1 2.9-4.66"/><path fill="#6293b5" d="M718.15 607.67c.72.61 1.42 1.23 2.1 1.87-.96 4.8-2.98 9.05-2.72 14.09 1.06-.36 2.13-.7 3.19-1.06-.13 1.18-.25 2.36-.37 3.54 1.32-1.46 2.65-2.91 3.97-4.38 2.6 7.43 6.56 15.69 12.79 20.73-.73 5.43-.91 10.88-1.22 16.35-1.72 9.36-3.05 19.41-6.76 28.14-1.39 3.16-2.66 7.53-5.47 9.7-3.53 2.24-9.3 2.2-12.27-1.03-2.74-2.81-5.16-6.55-5.44-10.57-.34-4.25.4-8.79 1.06-13 1.95-12.13 3.45-24.34 5.52-36.44 1.55-9.38 4.15-18.56 5.62-27.94"/><path fill="#b8dfed" d="M695.94 613.43c2.87 6.79.22 13.78 2.03 20.79.66 1.65 1.54 3.21 2.41 4.74l2.82-1.56c.04 1.6.1 3.2.1 4.8-.74 5.94-1.64 11.86-2.46 17.79-.15 2.18-1.4 3.51-2.62 5.18-4.44-.32-8.74.24-13.17.31-10.89.23-21.88-.83-32.49-3.27 2.16-.85 4.76-1.51 6.57-3.01 1.12-3 1.71-7.89 1.3-11.08-.96-2.56-3.13-4.88-4.86-6.98 1.44-4.86 2.97-9.69 4.38-14.55 3.57.18 7.17-.15 9.86 2.68 1.73 1.66 2.89 4.37.96 6.34-1.84.69-4.04.93-5.78 1.87-1.81 1.26-2.39 3.26-2.66 5.34-.58 5.26-.2 10.72 0 16.01 10.86.14 21.74-.01 32.6-.08-.71-3.16-1.15-6.11-.42-9.3-1.08.06-2.15.11-3.23.17 1.48-4.14 3.27-8.11 3.53-12.55.39-7.68-.51-16.08 1.13-23.64"/><path fill="#cfedef" d="M481.94 642.74c4.97 5.73 7.25 12.1 10.77 18.55 5.27 8.73 8.55 17.8 15.66 25.38 5.27 6.36 14.18 9.89 22.14 6.75 7.06-2.73 13.79-6.45 19.73-11.17 7.03-5.32 13.03-11.86 20.24-16.84 2.78-1.89 5.65-3.26 9.03-1.99 2.08 1.58 2.07 3.65 1.73 6.01-1.6 9.74-2.55 19.52-3.81 29.31-1.92 13.7-6.66 26.15-10.4 39.35-2.14 6.97-5.64 12.87-8.42 19.5-1.75 4.1-2.7 8.14-5.14 11.93-3.24 5.04-6.74 9.91-10.39 14.66.3 1.7.75 3.36 1.06 5.06-6.55 3.59-12.94 7.26-20.02 9.73-10.88 3.72-21.34 7.82-32.78 9.54-23.57 4.64-48.63 5.33-72.2.37-16.76-3.61-32.26-9.86-47.75-17.07 3.23-1.62 6.35-3.34 9.83-4.38 3.22-.98 6.32-2.18 9.15-4.03 7.07-4.55 14.42-9.76 19.84-16.24 4.56-5.16 9.57-9.77 13.43-15.54 3.51-4.65 7.42-8.8 10.05-14.07 2.91-5.32 6.89-9.85 9.49-15.38 8.24-16.61 17.54-33.64 22.81-51.28 2.07-6.17 3.77-12.37 5.25-18.7 1.06-3.82 2.22-8.88 5.28-11.6 2.06-.09 4.03.59 5.42 2.15"/><path fill="#a7d6e6" d="M655.57 641.14c1.73 2.1 3.9 4.42 4.86 6.98.41 3.19-.18 8.08-1.3 11.08-1.81 1.5-4.41 2.16-6.57 3.01-.88-.22-1.76-.44-2.64-.65 1.41-6.96 3.78-13.58 5.65-20.42"/><path fill="#345f7f" d="M735.89 658.81c-.08 4.14-.25 8.29-.23 12.44.01 3.93 1.28 7.68 1.36 11.57-.72.9-1.14 1.99-1.81 2.93.4.9.86 1.77 1.3 2.65-.84-.17-1.68-.38-2.51-.64-.49 1.46-.78 2.97-1.28 4.43-.66-1.93-1.42-3.83-2.08-5.76-.5.18-1 .35-1.51.52 3.71-8.73 5.04-18.78 6.76-28.14"/><path fill="#163957" d="M258.72 778.55c1.48 2.57 2.89 5.17 4.23 7.81.32 4.8.29 9.57-.02 14.38-.9 5.02-.65 9.52-4.74 13.18-3.18-9.73-4.39-19.85-2.28-29.95.42-2.13 1.63-3.65 2.81-5.42"/><path fill="#b4dcee" d="M549.78 797.06c-6.69 12.17-15.96 21.38-25.31 31.42-11.33 13.25-24.4 25.42-39.06 34.93-6.72 4.11-13.29 7.7-21.42 7.58-11.02.66-21.38-8.09-24.72-18.24-3.32-10.03-4.36-21.09-4.04-31.61 7.65.61 15.08 1.8 22.79 1.39 14.58-.77 29.02-2.52 43.14-6.33 7.02-1.79 13.79-4.38 20.81-6.2 6.11-1.55 11.25-4.58 17.03-6.96 3.84-1.58 7.32-3.72 10.78-5.98"/></svg>